<?xml version="1.0" encoding="UTF-8"?>
<svg xmlns="http://www.w3.org/2000/svg" xmlns:xlink="http://www.w3.org/1999/xlink" width="40px" height="40px" viewBox="0 0 40 40" version="1.1">
<g id="surface1">
<path style=" stroke:none;fill-rule:nonzero;fill:rgb(43.921569%,18.823529%,62.745098%);fill-opacity:1;" d="M 2.46875 23.921875 C 3.972656 23.796875 6.3125 23.542969 7.921875 23.027344 C 10.097656 22.328125 12.175781 21.3125 13.921875 19.828125 C 15.628906 18.375 17.019531 16.597656 18.558594 14.980469 C 20.472656 12.964844 22.628906 11.34375 25.390625 10.785156 C 27.625 10.335938 29.890625 10.238281 32.175781 10.082031 L 30.351562 11.925781 C 29.480469 12.808594 29.488281 14.230469 30.371094 15.101562 C 30.808594 15.535156 31.378906 15.75 31.949219 15.75 C 32.527344 15.75 33.109375 15.527344 33.546875 15.082031 L 39.179688 9.382812 C 40.050781 8.5 40.042969 7.078125 39.160156 6.207031 L 33.535156 0.648438 C 32.65625 -0.222656 31.234375 -0.214844 30.359375 0.667969 C 29.488281 1.550781 29.496094 2.972656 30.378906 3.84375 L 32.136719 5.582031 C 32.117188 5.582031 32.097656 5.582031 32.078125 5.582031 C 29.554688 5.761719 26.953125 5.785156 24.464844 6.296875 C 19.492188 7.320312 16.253906 10.730469 13.171875 14.488281 C 11.511719 16.511719 9.144531 17.894531 6.683594 18.707031 C 5.414062 19.125 3.382812 19.335938 2.097656 19.441406 C 0.9375 19.539062 0.046875 20.515625 0.0585938 21.679688 L 0.0585938 21.726562 C 0.0703125 23.019531 1.179688 24.027344 2.46875 23.921875 Z M 2.46875 23.921875 "/>
<path style=" stroke:none;fill-rule:nonzero;fill:rgb(0%,69.019608%,31.372549%);fill-opacity:1;" d="M 37.523438 16.070312 C 36.023438 16.195312 33.683594 16.449219 32.070312 16.96875 C 29.898438 17.664062 27.816406 18.679688 26.070312 20.164062 C 24.363281 21.621094 22.972656 23.394531 21.433594 25.015625 C 19.523438 27.027344 17.363281 28.648438 14.601562 29.207031 C 12.367188 29.660156 10.101562 29.753906 7.820312 29.910156 L 9.640625 28.066406 C 10.511719 27.183594 10.503906 25.761719 9.621094 24.890625 C 8.738281 24.019531 7.316406 24.027344 6.445312 24.910156 L 0.8125 30.609375 C -0.0585938 31.492188 -0.0507812 32.914062 0.832031 33.789062 L 6.457031 39.34375 C 6.894531 39.777344 7.464844 39.992188 8.035156 39.992188 C 8.613281 39.992188 9.195312 39.769531 9.632812 39.324219 C 10.503906 38.445312 10.496094 37.023438 9.613281 36.148438 L 7.855469 34.410156 C 7.875 34.410156 7.894531 34.410156 7.914062 34.410156 C 10.4375 34.230469 13.042969 34.210938 15.527344 33.699219 C 20.5 32.671875 23.738281 29.261719 26.820312 25.503906 C 28.484375 23.484375 30.847656 22.097656 33.3125 21.289062 C 34.578125 20.871094 36.609375 20.65625 37.894531 20.550781 C 39.058594 20.453125 39.949219 19.476562 39.9375 18.3125 L 39.933594 18.265625 C 39.921875 16.972656 38.8125 15.964844 37.523438 16.070312 Z M 37.523438 16.070312 "/>
</g>
</svg>
